<svg width="277" height="49" viewBox="0 0 277 49" fill="none" xmlns="http://www.w3.org/2000/svg">
<path fill-rule="evenodd" clip-rule="evenodd" d="M26.3122 25.4844L40.4412 16.2539C41.9764 15.1328 43.3787 16.1132 43.3787 18.4883V32.6253C43.3787 35.0003 41.9764 37.8011 40.4412 38.7776L26.3122 48.1526C24.7692 49.2737 23.3747 48.1526 23.3747 45.9143V31.6483C23.3747 29.2655 24.7692 26.6094 26.3122 25.4844ZM18.3356 22.2735L5.4606 14.0118C3.5036 12.8946 3.6442 10.797 5.73794 9.39846L18.3359 1.14456C20.4297 -0.253837 23.6523 -0.398437 25.4726 0.863313L38.3436 9.11721C40.3006 10.2383 40.16 12.3399 38.0663 13.7344L25.4723 21.9883C23.5075 23.3906 20.152 23.5274 18.3356 22.2735ZM16.9294 25.4844L2.9414 16.2539C1.4023 15.1328 0 16.1132 0 18.4883V32.6253C0 35.0003 1.3984 37.8011 2.9414 38.7776L16.9294 48.1526C18.613 49.2737 19.8669 48.1526 19.8669 45.9143L19.8708 31.6483C19.8708 29.2655 18.613 26.6094 16.9294 25.4844Z" fill="white"/>
<path d="M78.1307 20.6364H70.9205C70.8693 20.0398 70.733 19.4986 70.5114 19.0128C70.2983 18.527 70 18.1094 69.6165 17.7599C69.2415 17.402 68.7855 17.1293 68.2486 16.9418C67.7116 16.7457 67.1023 16.6477 66.4205 16.6477C65.2273 16.6477 64.2173 16.9375 63.3906 17.517C62.5724 18.0966 61.9503 18.9276 61.5241 20.0099C61.1065 21.0923 60.8977 22.392 60.8977 23.9091C60.8977 25.5114 61.1108 26.8537 61.5369 27.9361C61.9716 29.0099 62.598 29.8196 63.4162 30.3651C64.2344 30.902 65.2188 31.1705 66.3693 31.1705C67.0256 31.1705 67.6136 31.0895 68.1335 30.9276C68.6534 30.7571 69.1051 30.5142 69.4886 30.1989C69.8722 29.8835 70.1832 29.5043 70.4219 29.0611C70.669 28.6094 70.8352 28.1023 70.9205 27.5398L78.1307 27.5909C78.0455 28.6989 77.7344 29.8281 77.1974 30.9787C76.6605 32.1207 75.8977 33.1776 74.9091 34.1491C73.929 35.1122 72.7145 35.8878 71.2656 36.4759C69.8168 37.0639 68.1335 37.358 66.2159 37.358C63.8125 37.358 61.6562 36.8423 59.7472 35.8111C57.8466 34.7798 56.3423 33.2628 55.2344 31.2599C54.1349 29.2571 53.5852 26.8068 53.5852 23.9091C53.5852 20.9943 54.1477 18.5398 55.2727 16.5455C56.3977 14.5426 57.9148 13.0298 59.8239 12.0071C61.733 10.9759 63.8636 10.4602 66.2159 10.4602C67.8693 10.4602 69.3906 10.6861 70.7798 11.1378C72.169 11.5895 73.3878 12.25 74.4361 13.1193C75.4844 13.9801 76.3281 15.0412 76.9673 16.3026C77.6065 17.5639 77.9943 19.0085 78.1307 20.6364ZM81.3555 37V10.8182H88.4634V31.2727H99.0487V37H81.3555ZM125.346 20.6364H118.135C118.084 20.0398 117.948 19.4986 117.726 19.0128C117.513 18.527 117.215 18.1094 116.831 17.7599C116.456 17.402 116 17.1293 115.463 16.9418C114.926 16.7457 114.317 16.6477 113.635 16.6477C112.442 16.6477 111.432 16.9375 110.605 17.517C109.787 18.0966 109.165 18.9276 108.739 20.0099C108.321 21.0923 108.113 22.392 108.113 23.9091C108.113 25.5114 108.326 26.8537 108.752 27.9361C109.186 29.0099 109.813 29.8196 110.631 30.3651C111.449 30.902 112.434 31.1705 113.584 31.1705C114.24 31.1705 114.828 31.0895 115.348 30.9276C115.868 30.7571 116.32 30.5142 116.703 30.1989C117.087 29.8835 117.398 29.5043 117.637 29.0611C117.884 28.6094 118.05 28.1023 118.135 27.5398L125.346 27.5909C125.26 28.6989 124.949 29.8281 124.412 30.9787C123.875 32.1207 123.113 33.1776 122.124 34.1491C121.144 35.1122 119.929 35.8878 118.48 36.4759C117.032 37.0639 115.348 37.358 113.431 37.358C111.027 37.358 108.871 36.8423 106.962 35.8111C105.061 34.7798 103.557 33.2628 102.449 31.2599C101.35 29.2571 100.8 26.8068 100.8 23.9091C100.8 20.9943 101.363 18.5398 102.488 16.5455C103.613 14.5426 105.13 13.0298 107.039 12.0071C108.948 10.9759 111.078 10.4602 113.431 10.4602C115.084 10.4602 116.605 10.6861 117.995 11.1378C119.384 11.5895 120.603 12.25 121.651 13.1193C122.699 13.9801 123.543 15.0412 124.182 16.3026C124.821 17.5639 125.209 19.0085 125.346 20.6364ZM138.644 37H128.57V10.8182H138.542C141.235 10.8182 143.562 11.3423 145.522 12.3906C147.491 13.4304 149.008 14.9304 150.073 16.8906C151.147 18.8423 151.684 21.1818 151.684 23.9091C151.684 26.6364 151.151 28.9801 150.086 30.9403C149.021 32.892 147.512 34.392 145.56 35.4403C143.609 36.4801 141.303 37 138.644 37ZM135.678 30.9659H138.388C139.684 30.9659 140.788 30.7571 141.7 30.3395C142.62 29.9219 143.319 29.2017 143.796 28.179C144.282 27.1562 144.525 25.733 144.525 23.9091C144.525 22.0852 144.278 20.6619 143.783 19.6392C143.298 18.6165 142.582 17.8963 141.636 17.4787C140.698 17.0611 139.548 16.8523 138.184 16.8523H135.678V30.9659ZM160.866 37H159.997L173.701 10.8182H174.826L179.838 37H178.968L174.162 11.8409H174.059L160.866 37ZM165.468 27.3352H177.639L177.485 28.1534H165.315L165.468 27.3352ZM191.947 37H185.095L189.442 10.8182H196.959C199.362 10.8182 201.339 11.3381 202.891 12.3778C204.442 13.4091 205.516 14.8963 206.112 16.8395C206.709 18.7741 206.777 21.0966 206.317 23.8068C205.839 26.5852 204.953 28.9588 203.658 30.9276C202.371 32.8963 200.734 34.4006 198.749 35.4403C196.771 36.4801 194.504 37 191.947 37ZM186.054 36.1818H192.101C194.479 36.1818 196.597 35.679 198.455 34.6733C200.321 33.6676 201.859 32.2401 203.07 30.3906C204.28 28.5412 205.089 26.3466 205.499 23.8068C205.916 21.2159 205.865 19.017 205.345 17.2102C204.825 15.3949 203.849 14.0142 202.418 13.0682C200.994 12.1136 199.124 11.6364 196.805 11.6364H190.119L186.054 36.1818ZM215.176 10.8182H215.892L222.438 35.7727H222.54L237.369 10.8182H238.085L233.739 37H232.92L236.858 13.375H236.756L222.693 37H221.875L215.688 13.375H215.585L211.648 37H210.83L215.176 10.8182ZM247.072 10.8182L242.726 37H241.908L246.254 10.8182H247.072ZM274.891 10.8182L270.544 37H269.726L255.919 12.3523H255.817L251.726 37H250.908L255.254 10.8182H256.072L269.879 35.4659H269.982L274.072 10.8182H274.891Z" fill="white"/>
</svg>
