<svg width="44" height="49" viewBox="0 0 44 49" fill="none" xmlns="http://www.w3.org/2000/svg">
<path fill-rule="evenodd" clip-rule="evenodd" d="M26.3122 25.4844L40.4412 16.2539C41.9764 15.1328 43.3787 16.1132 43.3787 18.4883V32.6253C43.3787 35.0003 41.9764 37.8011 40.4412 38.7776L26.3122 48.1526C24.7692 49.2737 23.3747 48.1526 23.3747 45.9143V31.6483C23.3747 29.2655 24.7692 26.6094 26.3122 25.4844ZM18.3356 22.2735L5.4606 14.0118C3.5036 12.8946 3.6442 10.797 5.73794 9.39846L18.3359 1.14456C20.4297 -0.253837 23.6523 -0.398437 25.4726 0.863313L38.3436 9.11721C40.3006 10.2383 40.16 12.3399 38.0663 13.7344L25.4723 21.9883C23.5075 23.3906 20.152 23.5274 18.3356 22.2735ZM16.9294 25.4844L2.9414 16.2539C1.4023 15.1328 0 16.1132 0 18.4883V32.6253C0 35.0003 1.3984 37.8011 2.9414 38.7776L16.9294 48.1526C18.613 49.2737 19.8669 48.1526 19.8669 45.9143L19.8708 31.6483C19.8708 29.2655 18.613 26.6094 16.9294 25.4844Z" fill="white"/>
</svg>
